<?xml version="1.0" encoding="iso-8859-1"?>
<!-- Uploaded to: SVG Repo, www.svgrepo.com, Generator: SVG Repo Mixer Tools -->
<svg height="800px" width="800px" version="1.1" id="Layer_1" xmlns="http://www.w3.org/2000/svg" xmlns:xlink="http://www.w3.org/1999/xlink" 
	 viewBox="0 0 512 512" xml:space="preserve">
<circle style="fill:#ECE5DD;" cx="256" cy="256" r="247.916"/>
<path style="fill:#D9CBBD;" d="M256,8.084c-10.96,0-21.752,0.72-32.337,2.099C345.304,26.029,439.242,130.04,439.242,256
	s-93.939,229.971-215.579,245.817c10.585,1.379,21.377,2.099,32.337,2.099c136.921,0,247.916-110.996,247.916-247.916
	S392.921,8.084,256,8.084z"/>
<path style="fill:#C6C5CB;" d="M395.708,169.229H153.143c-6.472,0-11.736,5.391-11.736,12.016v214.181
	c0,6.626,5.264,12.016,11.736,12.016h0.987h240.59h0.987c6.472,0,11.736-5.391,11.736-12.016V181.246
	C407.444,174.62,402.18,169.229,395.708,169.229z"/>
<path style="fill:#C2FA3A;" d="M147.672,102.959l14.558,13.808c15.62,14.816,37.561,38.713,53.385,68.423l4.413,8.284
	l-71.273,29.372L147.672,102.959z"/>
<path style="fill:#9CDD04;" d="M148.755,222.843l70.79-30.338l3.379,7.97c8,18.869,12.057,37.551,12.057,55.526
	c0,5.747-0.427,11.671-1.269,17.61l-0.718,5.066l-85.323,30.845L148.755,222.843z"/>
<path style="fill:#A5E276;" d="M76.42,193.483l4.417-8.286c15.822-29.679,37.746-53.58,53.35-68.404l13.484-13.755l1.083,119.805
	L76.42,193.483z"/>
<path style="fill:#5FAC24;" d="M63.421,278.675l-0.717-5.069c-0.839-5.931-1.264-11.854-1.264-17.605
	c0-17.959,4.065-36.639,12.08-55.519l3.382-7.966l71.854,30.328l-1.084,86.678L63.421,278.675z"/>
<path style="fill:#48811B;" d="M134.193,395.234c-19.303-18.308-53.691-55.852-67.121-101.6l-3.878-16.565l84.478,32.452v99.52
	L134.193,395.234z"/>
<path style="fill:#79AB03;" d="M147.672,309.521l86.538-32.451l-4.877,16.576c-13.444,45.677-47.809,83.238-67.098,101.561
	l-14.562,13.834V309.521z"/>
<path d="M437.019,74.982C388.667,26.628,324.379,0,256,0S123.333,26.628,74.981,74.982C26.628,123.333,0,187.62,0,256
	s26.628,132.667,74.981,181.019C123.333,485.372,187.62,512,256,512s132.667-26.628,181.019-74.982
	C485.372,388.667,512,324.379,512,256S485.372,123.333,437.019,74.982z M256,495.832C123.756,495.832,16.168,388.244,16.168,256
	S123.756,16.168,256,16.168S495.832,123.756,495.832,256S388.244,495.832,256,495.832z"/>
<path d="M395.428,161.684H210.329c-3.883-5.825-8.103-11.63-12.658-17.4c-21.904-27.747-43.564-44.839-44.475-45.553
	c-2.929-2.295-7.044-2.295-9.973,0c-0.911,0.714-22.57,17.806-44.475,45.553C69.406,181.456,53.895,220.087,53.895,256
	s15.511,74.544,44.854,111.716c21.904,27.747,43.564,44.839,44.475,45.553c0.028,0.022,0.059,0.036,0.086,0.057
	c0.662,0.506,1.403,0.911,2.203,1.193c0.05,0.018,0.098,0.038,0.148,0.054c0.37,0.123,0.751,0.218,1.143,0.287
	c0.071,0.013,0.143,0.023,0.215,0.032c0.39,0.058,0.786,0.097,1.191,0.097h247.217c10.786,0,19.562-8.776,19.562-19.562V181.246
	C414.989,170.46,406.213,161.684,395.428,161.684z M140.126,388.977c-18.613-17.653-51.91-53.935-64.78-97.772l64.78,24.293V388.977
	z M140.126,298.23l-68.884-25.832c-0.762-5.389-1.179-10.86-1.179-16.397c0-18.305,4.498-35.908,11.394-52.15l58.669,25.142V298.23z
	 M140.126,211.402l-51.681-22.149c15.661-29.374,37.771-52.995,51.681-66.209V211.402z M156.295,123.023
	c13.918,13.201,36.047,36.814,51.71,66.218l-51.71,22.16V123.023z M156.295,388.955v-73.457l64.763-24.286
	C208.177,334.981,174.901,371.279,156.295,388.955z M398.821,395.428c0,1.874-1.52,3.393-3.393,3.393H169.453
	c8-7.71,18.082-18.263,28.219-31.105c29.344-37.172,44.854-75.803,44.854-111.716c0-0.085,0-0.171,0-0.257
	c-0.011-4.058-3.357-7.322-7.415-7.322h-1.341c-4.129,0-7.415,3.374-7.412,7.503c0,0.026,0,0.051,0,0.077
	c0,5.537-0.419,11.009-1.184,16.399l-68.881,25.83v-69.235l58.69-25.153c2.212,5.217,4.174,10.577,5.82,16.055
	c0.945,3.146,3.817,5.314,7.102,5.314h1.336c4.937,0,8.533-4.745,7.126-9.477c-3.732-12.546-9.136-25.225-16.171-37.882h175.23
	c1.874,0,3.393,1.52,3.393,3.393L398.821,395.428L398.821,395.428z"/>
</svg>